# https://github.com/mikedh/trimesh

o geometry_0
v 1.90000000 0.00000000 0.00000000
v 1.90000000 0.00000000 -0.30000000
v 5.00000000 0.00000000 -0.30000000
v 5.00000000 0.00000000 -1.00000000
v 5.12000000 0.00000000 -1.00000000
v 5.12000000 0.00000000 -0.30000000
v 9.70000000 0.00000000 -0.30000000
v 9.70000000 0.00000000 -1.00000000
v 10.00000000 0.00000000 -1.00000000
v 10.00000000 0.00000000 -0.30000000
v 10.00000000 0.00000000 0.00000000
v 9.70000000 0.00000000 0.00000000
v 1.90000000 2.70000000 0.00000000
v 1.90000000 2.70000000 -0.30000000
v 5.00000000 2.70000000 -0.30000000
v 5.00000000 2.70000000 -1.00000000
v 5.12000000 2.70000000 -1.00000000
v 5.12000000 2.70000000 -0.30000000
v 9.70000000 2.70000000 -0.30000000
v 9.70000000 2.70000000 -1.00000000
v 10.00000000 2.70000000 -1.00000000
v 10.00000000 2.70000000 -0.30000000
v 10.00000000 2.70000000 0.00000000
v 9.70000000 2.70000000 0.00000000
v 0.00000000 0.00000000 0.00000000
v 0.00000000 0.00000000 -0.30000000
v 0.00000000 0.00000000 -3.50000000
v 0.30000000 0.00000000 -3.50000000
v 0.30000000 0.00000000 -0.30000000
v 1.00000000 0.00000000 -0.30000000
v 1.00000000 0.00000000 0.00000000
v 0.30000000 0.00000000 0.00000000
v 0.00000000 2.70000000 0.00000000
v 0.00000000 2.70000000 -0.30000000
v 0.00000000 2.70000000 -3.50000000
v 0.30000000 2.70000000 -3.50000000
v 0.30000000 2.70000000 -0.30000000
v 1.00000000 2.70000000 -0.30000000
v 1.00000000 2.70000000 0.00000000
v 0.30000000 2.70000000 0.00000000
v 0.00000000 0.00000000 -7.00000000
v 0.30000000 0.00000000 -7.00000000
v 1.50000000 0.00000000 -7.00000000
v 1.50000000 0.00000000 -6.70000000
v 0.30000000 0.00000000 -6.70000000
v 0.30000000 0.00000000 -4.70000000
v 0.00000000 0.00000000 -4.70000000
v 0.00000000 0.00000000 -6.70000000
v 0.00000000 2.70000000 -7.00000000
v 0.30000000 2.70000000 -7.00000000
v 1.50000000 2.70000000 -7.00000000
v 1.50000000 2.70000000 -6.70000000
v 0.30000000 2.70000000 -6.70000000
v 0.30000000 2.70000000 -4.70000000
v 0.00000000 2.70000000 -4.70000000
v 0.00000000 2.70000000 -6.70000000
v 6.50000000 0.00000000 -6.70000000
v 5.12000000 0.00000000 -6.70000000
v 5.12000000 0.00000000 -5.30000000
v 5.00000000 0.00000000 -5.30000000
v 5.00000000 0.00000000 -6.70000000
v 3.00000000 0.00000000 -6.70000000
v 3.00000000 0.00000000 -7.00000000
v 6.50000000 0.00000000 -7.00000000
v 6.50000000 2.70000000 -6.70000000
v 5.12000000 2.70000000 -6.70000000
v 5.12000000 2.70000000 -5.30000000
v 5.00000000 2.70000000 -5.30000000
v 5.00000000 2.70000000 -6.70000000
v 3.00000000 2.70000000 -6.70000000
v 3.00000000 2.70000000 -7.00000000
v 6.50000000 2.70000000 -7.00000000
v 10.00000000 0.00000000 -7.00000000
v 10.00000000 0.00000000 -6.70000000
v 10.00000000 0.00000000 -2.40000000
v 9.70000000 0.00000000 -2.40000000
v 9.70000000 0.00000000 -3.50000000
v 6.80000000 0.00000000 -3.50000000
v 6.80000000 0.00000000 -3.62000000
v 9.70000000 0.00000000 -3.62000000
v 9.70000000 0.00000000 -6.70000000
v 8.00000000 0.00000000 -6.70000000
v 8.00000000 0.00000000 -7.00000000
v 9.70000000 0.00000000 -7.00000000
v 10.00000000 2.70000000 -7.00000000
v 10.00000000 2.70000000 -6.70000000
v 10.00000000 2.70000000 -2.40000000
v 9.70000000 2.70000000 -2.40000000
v 9.70000000 2.70000000 -3.50000000
v 6.80000000 2.70000000 -3.50000000
v 6.80000000 2.70000000 -3.62000000
v 9.70000000 2.70000000 -3.62000000
v 9.70000000 2.70000000 -6.70000000
v 8.00000000 2.70000000 -6.70000000
v 8.00000000 2.70000000 -7.00000000
v 9.70000000 2.70000000 -7.00000000
v 5.12000000 0.00000000 -4.50000000
v 5.12000000 0.00000000 -3.62000000
v 6.00000000 0.00000000 -3.62000000
v 6.00000000 0.00000000 -3.50000000
v 5.12000000 0.00000000 -3.50000000
v 5.12000000 0.00000000 -1.80000000
v 5.00000000 0.00000000 -1.80000000
v 5.00000000 0.00000000 -4.50000000
v 5.12000000 2.70000000 -4.50000000
v 5.12000000 2.70000000 -3.62000000
v 6.00000000 2.70000000 -3.62000000
v 6.00000000 2.70000000 -3.50000000
v 5.12000000 2.70000000 -3.50000000
v 5.12000000 2.70000000 -1.80000000
v 5.00000000 2.70000000 -1.80000000
v 5.00000000 2.70000000 -4.50000000
v 1.90000000 2.10000000 0.00000000
v 1.90000000 2.10000000 -0.30000000
v 1.00000000 2.10000000 -0.30000000
v 1.00000000 2.10000000 0.00000000
v 1.90000000 2.70000000 0.00000000
v 1.90000000 2.70000000 -0.30000000
v 1.00000000 2.70000000 -0.30000000
v 1.00000000 2.70000000 0.00000000
v 5.12000000 2.10000000 -1.00000000
v 5.12000000 2.10000000 -1.80000000
v 5.00000000 2.10000000 -1.80000000
v 5.00000000 2.10000000 -1.00000000
v 5.12000000 2.70000000 -1.00000000
v 5.12000000 2.70000000 -1.80000000
v 5.00000000 2.70000000 -1.80000000
v 5.00000000 2.70000000 -1.00000000
v 6.80000000 2.10000000 -3.50000000
v 6.80000000 2.10000000 -3.62000000
v 6.00000000 2.10000000 -3.62000000
v 6.00000000 2.10000000 -3.50000000
v 6.80000000 2.70000000 -3.50000000
v 6.80000000 2.70000000 -3.62000000
v 6.00000000 2.70000000 -3.62000000
v 6.00000000 2.70000000 -3.50000000
v 5.12000000 2.10000000 -4.50000000
v 5.12000000 2.10000000 -5.30000000
v 5.00000000 2.10000000 -5.30000000
v 5.00000000 2.10000000 -4.50000000
v 5.12000000 2.70000000 -4.50000000
v 5.12000000 2.70000000 -5.30000000
v 5.00000000 2.70000000 -5.30000000
v 5.00000000 2.70000000 -4.50000000
v 3.00000000 0.00000000 -6.70000000
v 3.00000000 0.00000000 -7.00000000
v 1.50000000 0.00000000 -7.00000000
v 1.50000000 0.00000000 -6.70000000
v 3.00000000 0.90000000 -6.70000000
v 3.00000000 0.90000000 -7.00000000
v 1.50000000 0.90000000 -7.00000000
v 1.50000000 0.90000000 -6.70000000
v 3.00000000 2.10000000 -6.70000000
v 3.00000000 2.10000000 -7.00000000
v 1.50000000 2.10000000 -7.00000000
v 1.50000000 2.10000000 -6.70000000
v 3.00000000 2.70000000 -6.70000000
v 3.00000000 2.70000000 -7.00000000
v 1.50000000 2.70000000 -7.00000000
v 1.50000000 2.70000000 -6.70000000
v 8.00000000 0.00000000 -6.70000000
v 8.00000000 0.00000000 -7.00000000
v 6.50000000 0.00000000 -7.00000000
v 6.50000000 0.00000000 -6.70000000
v 8.00000000 0.90000000 -6.70000000
v 8.00000000 0.90000000 -7.00000000
v 6.50000000 0.90000000 -7.00000000
v 6.50000000 0.90000000 -6.70000000
v 8.00000000 2.10000000 -6.70000000
v 8.00000000 2.10000000 -7.00000000
v 6.50000000 2.10000000 -7.00000000
v 6.50000000 2.10000000 -6.70000000
v 8.00000000 2.70000000 -6.70000000
v 8.00000000 2.70000000 -7.00000000
v 6.50000000 2.70000000 -7.00000000
v 6.50000000 2.70000000 -6.70000000
v 10.00000000 0.00000000 -1.00000000
v 10.00000000 0.00000000 -2.40000000
v 9.70000000 0.00000000 -2.40000000
v 9.70000000 0.00000000 -1.00000000
v 10.00000000 0.90000000 -1.00000000
v 10.00000000 0.90000000 -2.40000000
v 9.70000000 0.90000000 -2.40000000
v 9.70000000 0.90000000 -1.00000000
v 10.00000000 2.10000000 -1.00000000
v 10.00000000 2.10000000 -2.40000000
v 9.70000000 2.10000000 -2.40000000
v 9.70000000 2.10000000 -1.00000000
v 10.00000000 2.70000000 -1.00000000
v 10.00000000 2.70000000 -2.40000000
v 9.70000000 2.70000000 -2.40000000
v 9.70000000 2.70000000 -1.00000000
v 0.30000000 0.00000000 -3.50000000
v 0.30000000 0.00000000 -4.70000000
v 0.00000000 0.00000000 -4.70000000
v 0.00000000 0.00000000 -3.50000000
v 0.30000000 0.90000000 -3.50000000
v 0.30000000 0.90000000 -4.70000000
v 0.00000000 0.90000000 -4.70000000
v 0.00000000 0.90000000 -3.50000000
v 0.30000000 2.10000000 -3.50000000
v 0.30000000 2.10000000 -4.70000000
v 0.00000000 2.10000000 -4.70000000
v 0.00000000 2.10000000 -3.50000000
v 0.30000000 2.70000000 -3.50000000
v 0.30000000 2.70000000 -4.70000000
v 0.00000000 2.70000000 -4.70000000
v 0.00000000 2.70000000 -3.50000000
f 10 11 12
f 9 10 12
f 7 8 9
f 4 5 6
f 3 4 6
f 1 2 3
f 12 1 3
f 7 9 12
f 6 7 12
f 3 6 12
f 24 23 22
f 24 22 21
f 21 20 19
f 18 17 16
f 18 16 15
f 15 14 13
f 15 13 24
f 24 21 19
f 24 19 18
f 24 18 15
f 13 14 1
f 1 14 2
f 14 15 2
f 2 15 3
f 15 16 3
f 3 16 4
f 16 17 4
f 4 17 5
f 17 18 5
f 5 18 6
f 18 19 6
f 6 19 7
f 19 20 7
f 7 20 8
f 20 21 8
f 8 21 9
f 21 22 9
f 9 22 10
f 22 23 10
f 10 23 11
f 24 13 12
f 12 13 1
f 23 24 11
f 11 24 12
f 30 31 32
f 29 30 32
f 27 28 29
f 26 27 29
f 25 26 29
f 32 25 29
f 40 39 38
f 40 38 37
f 37 36 35
f 37 35 34
f 37 34 33
f 37 33 40
f 33 34 25
f 25 34 26
f 34 35 26
f 26 35 27
f 35 36 27
f 27 36 28
f 36 37 28
f 28 37 29
f 37 38 29
f 29 38 30
f 38 39 30
f 30 39 31
f 40 33 32
f 32 33 25
f 39 40 31
f 31 40 32
f 46 47 48
f 45 46 48
f 43 44 45
f 42 43 45
f 41 42 45
f 48 41 45
f 56 55 54
f 56 54 53
f 53 52 51
f 53 51 50
f 53 50 49
f 53 49 56
f 49 50 41
f 41 50 42
f 50 51 42
f 42 51 43
f 51 52 43
f 43 52 44
f 52 53 44
f 44 53 45
f 53 54 45
f 45 54 46
f 54 55 46
f 46 55 47
f 56 49 48
f 48 49 41
f 55 56 47
f 47 56 48
f 63 64 57
f 61 62 63
f 59 60 61
f 58 59 61
f 63 57 58
f 61 63 58
f 65 72 71
f 71 70 69
f 69 68 67
f 69 67 66
f 66 65 71
f 66 71 69
f 65 66 57
f 57 66 58
f 66 67 58
f 58 67 59
f 67 68 59
f 59 68 60
f 68 69 60
f 60 69 61
f 69 70 61
f 61 70 62
f 70 71 62
f 62 71 63
f 72 65 64
f 64 65 57
f 71 72 63
f 63 72 64
f 82 83 84
f 81 82 84
f 78 79 80
f 77 78 80
f 75 76 77
f 74 75 77
f 73 74 77
f 81 84 73
f 80 81 73
f 77 80 73
f 96 95 94
f 96 94 93
f 92 91 90
f 92 90 89
f 89 88 87
f 89 87 86
f 89 86 85
f 85 96 93
f 85 93 92
f 85 92 89
f 85 86 73
f 73 86 74
f 86 87 74
f 74 87 75
f 87 88 75
f 75 88 76
f 88 89 76
f 76 89 77
f 89 90 77
f 77 90 78
f 90 91 78
f 78 91 79
f 91 92 79
f 79 92 80
f 92 93 80
f 80 93 81
f 93 94 81
f 81 94 82
f 94 95 82
f 82 95 83
f 96 85 84
f 84 85 73
f 95 96 83
f 83 96 84
f 103 104 97
f 101 102 103
f 99 100 101
f 98 99 101
f 103 97 98
f 101 103 98
f 105 112 111
f 111 110 109
f 109 108 107
f 109 107 106
f 106 105 111
f 106 111 109
f 105 106 97
f 97 106 98
f 106 107 98
f 98 107 99
f 107 108 99
f 99 108 100
f 108 109 100
f 100 109 101
f 109 110 101
f 101 110 102
f 110 111 102
f 102 111 103
f 112 105 104
f 104 105 97
f 111 112 103
f 103 112 104
f 114 113 116
f 115 114 116
f 120 117 118
f 120 118 119
f 118 117 114
f 114 117 113
f 119 118 115
f 115 118 114
f 117 120 113
f 113 120 116
f 120 119 116
f 116 119 115
f 122 121 124
f 123 122 124
f 128 125 126
f 128 126 127
f 126 125 122
f 122 125 121
f 127 126 123
f 123 126 122
f 125 128 121
f 121 128 124
f 128 127 124
f 124 127 123
f 130 129 132
f 131 130 132
f 136 133 134
f 136 134 135
f 134 133 130
f 130 133 129
f 135 134 131
f 131 134 130
f 133 136 129
f 129 136 132
f 136 135 132
f 132 135 131
f 138 137 140
f 139 138 140
f 144 141 142
f 144 142 143
f 142 141 138
f 138 141 137
f 143 142 139
f 139 142 138
f 141 144 137
f 137 144 140
f 144 143 140
f 140 143 139
f 146 145 148
f 147 146 148
f 152 149 150
f 152 150 151
f 150 149 146
f 146 149 145
f 151 150 147
f 147 150 146
f 149 152 145
f 145 152 148
f 152 151 148
f 148 151 147
f 154 153 156
f 155 154 156
f 160 157 158
f 160 158 159
f 158 157 154
f 154 157 153
f 159 158 155
f 155 158 154
f 157 160 153
f 153 160 156
f 160 159 156
f 156 159 155
f 162 161 164
f 163 162 164
f 168 165 166
f 168 166 167
f 166 165 162
f 162 165 161
f 167 166 163
f 163 166 162
f 165 168 161
f 161 168 164
f 168 167 164
f 164 167 163
f 170 169 172
f 171 170 172
f 176 173 174
f 176 174 175
f 174 173 170
f 170 173 169
f 175 174 171
f 171 174 170
f 173 176 169
f 169 176 172
f 176 175 172
f 172 175 171
f 178 177 180
f 179 178 180
f 184 181 182
f 184 182 183
f 182 181 178
f 178 181 177
f 183 182 179
f 179 182 178
f 181 184 177
f 177 184 180
f 184 183 180
f 180 183 179
f 186 185 188
f 187 186 188
f 192 189 190
f 192 190 191
f 190 189 186
f 186 189 185
f 191 190 187
f 187 190 186
f 189 192 185
f 185 192 188
f 192 191 188
f 188 191 187
f 194 193 196
f 195 194 196
f 200 197 198
f 200 198 199
f 198 197 194
f 194 197 193
f 199 198 195
f 195 198 194
f 197 200 193
f 193 200 196
f 200 199 196
f 196 199 195
f 202 201 204
f 203 202 204
f 208 205 206
f 208 206 207
f 206 205 202
f 202 205 201
f 207 206 203
f 203 206 202
f 205 208 201
f 201 208 204
f 208 207 204
f 204 207 203

